<mxfile host="app.diagrams.net" agent="Mozilla/5.0 (Windows NT 10.0; Win64; x64) AppleWebKit/537.36 (KHTML, like Gecko) Chrome/137.0.0.0 Safari/537.36" version="27.1.4">
  <diagram name="Seite-1" id="EkB3jMlmpszPG6VCpS8g">
    <mxGraphModel dx="3160" dy="1837" grid="1" gridSize="10" guides="0" tooltips="1" connect="1" arrows="1" fold="1" page="1" pageScale="1" pageWidth="827" pageHeight="1169" math="0" shadow="0">
      <root>
        <mxCell id="0" />
        <mxCell id="1" parent="0" />
        <mxCell id="T5jp5YtRydBO0HDNmbS5-29" style="edgeStyle=orthogonalEdgeStyle;rounded=0;orthogonalLoop=1;jettySize=auto;html=1;" edge="1" parent="1" source="T5jp5YtRydBO0HDNmbS5-1" target="T5jp5YtRydBO0HDNmbS5-17">
          <mxGeometry relative="1" as="geometry" />
        </mxCell>
        <mxCell id="T5jp5YtRydBO0HDNmbS5-1" value="&lt;div&gt;&lt;font style=&quot;font-size: 24px;&quot;&gt;&lt;br&gt;&lt;/font&gt;&lt;/div&gt;&lt;div&gt;&lt;font style=&quot;font-size: 24px;&quot;&gt;&lt;br&gt;&lt;/font&gt;&lt;/div&gt;&lt;font style=&quot;font-size: 24px;&quot;&gt;Google Firebase&lt;/font&gt;&lt;div&gt;&lt;font style=&quot;font-size: 24px;&quot;&gt;&lt;br&gt;Realtime Database&lt;/font&gt;&lt;/div&gt;" style="strokeWidth=2;html=1;shape=mxgraph.flowchart.database;whiteSpace=wrap;" vertex="1" parent="1">
          <mxGeometry x="110" y="997" width="259.1" height="240" as="geometry" />
        </mxCell>
        <mxCell id="T5jp5YtRydBO0HDNmbS5-19" style="edgeStyle=orthogonalEdgeStyle;rounded=0;orthogonalLoop=1;jettySize=auto;html=1;" edge="1" parent="1" source="T5jp5YtRydBO0HDNmbS5-2" target="T5jp5YtRydBO0HDNmbS5-17">
          <mxGeometry relative="1" as="geometry" />
        </mxCell>
        <mxCell id="T5jp5YtRydBO0HDNmbS5-2" value="" style="sketch=0;outlineConnect=0;fontColor=#232F3E;gradientColor=none;fillColor=#232F3D;strokeColor=none;dashed=0;verticalLabelPosition=bottom;verticalAlign=top;align=center;html=1;fontSize=12;fontStyle=0;aspect=fixed;pointerEvents=1;shape=mxgraph.aws4.mobile_client;" vertex="1" parent="1">
          <mxGeometry x="147.56" y="207" width="183.98" height="350" as="geometry" />
        </mxCell>
        <mxCell id="T5jp5YtRydBO0HDNmbS5-22" style="edgeStyle=orthogonalEdgeStyle;rounded=0;orthogonalLoop=1;jettySize=auto;html=1;" edge="1" parent="1" source="T5jp5YtRydBO0HDNmbS5-7" target="T5jp5YtRydBO0HDNmbS5-2">
          <mxGeometry relative="1" as="geometry" />
        </mxCell>
        <mxCell id="T5jp5YtRydBO0HDNmbS5-7" value="&lt;font style=&quot;font-size: 24px;&quot;&gt;PrÃ¤sentationsschicht&lt;/font&gt;" style="swimlane;whiteSpace=wrap;html=1;" vertex="1" parent="1">
          <mxGeometry x="480" y="17" width="280" height="320" as="geometry" />
        </mxCell>
        <mxCell id="T5jp5YtRydBO0HDNmbS5-8" value="&lt;font style=&quot;font-size: 24px;&quot;&gt;Activities,&lt;/font&gt;&lt;div&gt;&lt;font style=&quot;font-size: 24px;&quot;&gt;&lt;br&gt;&lt;/font&gt;&lt;/div&gt;&lt;div&gt;&lt;font style=&quot;font-size: 24px;&quot;&gt;&amp;nbsp;UI-Elemente,&amp;nbsp;&lt;/font&gt;&lt;/div&gt;&lt;div&gt;&lt;font style=&quot;font-size: 24px;&quot;&gt;&lt;br&gt;&lt;/font&gt;&lt;/div&gt;&lt;div&gt;&lt;font style=&quot;font-size: 24px;&quot;&gt;Adapter&lt;/font&gt;&lt;/div&gt;" style="text;html=1;align=center;verticalAlign=middle;resizable=0;points=[];autosize=1;strokeColor=none;fillColor=none;" vertex="1" parent="T5jp5YtRydBO0HDNmbS5-7">
          <mxGeometry x="50" y="80" width="180" height="160" as="geometry" />
        </mxCell>
        <mxCell id="T5jp5YtRydBO0HDNmbS5-15" style="edgeStyle=orthogonalEdgeStyle;rounded=0;orthogonalLoop=1;jettySize=auto;html=1;exitX=0.5;exitY=1;exitDx=0;exitDy=0;entryX=0.5;entryY=0;entryDx=0;entryDy=0;" edge="1" parent="1" source="T5jp5YtRydBO0HDNmbS5-10" target="T5jp5YtRydBO0HDNmbS5-13">
          <mxGeometry relative="1" as="geometry" />
        </mxCell>
        <mxCell id="T5jp5YtRydBO0HDNmbS5-20" style="edgeStyle=orthogonalEdgeStyle;rounded=0;orthogonalLoop=1;jettySize=auto;html=1;" edge="1" parent="1" source="T5jp5YtRydBO0HDNmbS5-17" target="T5jp5YtRydBO0HDNmbS5-1">
          <mxGeometry relative="1" as="geometry" />
        </mxCell>
        <mxCell id="T5jp5YtRydBO0HDNmbS5-26" style="edgeStyle=orthogonalEdgeStyle;rounded=0;orthogonalLoop=1;jettySize=auto;html=1;" edge="1" parent="1" source="T5jp5YtRydBO0HDNmbS5-17">
          <mxGeometry relative="1" as="geometry">
            <mxPoint x="620" y="842" as="targetPoint" />
          </mxGeometry>
        </mxCell>
        <mxCell id="T5jp5YtRydBO0HDNmbS5-30" style="edgeStyle=orthogonalEdgeStyle;rounded=0;orthogonalLoop=1;jettySize=auto;html=1;" edge="1" parent="1" source="T5jp5YtRydBO0HDNmbS5-17" target="T5jp5YtRydBO0HDNmbS5-2">
          <mxGeometry relative="1" as="geometry" />
        </mxCell>
        <mxCell id="T5jp5YtRydBO0HDNmbS5-17" value="HTTP/2&#xa;protocol" style="sketch=0;outlineConnect=0;fontColor=#232F3E;gradientColor=none;strokeColor=#232F3E;fillColor=#ffffff;dashed=0;verticalLabelPosition=bottom;verticalAlign=top;align=center;html=1;fontSize=12;fontStyle=0;aspect=fixed;shape=mxgraph.aws4.resourceIcon;resIcon=mxgraph.aws4.http2_protocol;" vertex="1" parent="1">
          <mxGeometry x="174.55" y="777" width="130" height="130" as="geometry" />
        </mxCell>
        <mxCell id="T5jp5YtRydBO0HDNmbS5-23" style="edgeStyle=orthogonalEdgeStyle;rounded=0;orthogonalLoop=1;jettySize=auto;html=1;" edge="1" parent="1" source="T5jp5YtRydBO0HDNmbS5-10" target="T5jp5YtRydBO0HDNmbS5-2">
          <mxGeometry relative="1" as="geometry" />
        </mxCell>
        <mxCell id="T5jp5YtRydBO0HDNmbS5-10" value="&lt;font&gt;Logikschicht&lt;/font&gt;" style="swimlane;whiteSpace=wrap;html=1;fontSize=24;" vertex="1" parent="1">
          <mxGeometry x="480" y="377" width="280" height="320" as="geometry" />
        </mxCell>
        <mxCell id="T5jp5YtRydBO0HDNmbS5-11" value="App - Logik,&lt;div&gt;&lt;br&gt;&lt;/div&gt;&lt;div&gt;Validierung,&lt;/div&gt;&lt;div&gt;&lt;font&gt;&lt;br&gt;&lt;/font&gt;&lt;/div&gt;&lt;div&gt;Steuerung&lt;/div&gt;" style="text;html=1;align=center;verticalAlign=middle;resizable=0;points=[];autosize=1;strokeColor=none;fillColor=none;fontSize=24;" vertex="1" parent="T5jp5YtRydBO0HDNmbS5-10">
          <mxGeometry x="65" y="80" width="150" height="160" as="geometry" />
        </mxCell>
        <mxCell id="T5jp5YtRydBO0HDNmbS5-12" style="edgeStyle=orthogonalEdgeStyle;rounded=0;orthogonalLoop=1;jettySize=auto;html=1;exitX=0.5;exitY=1;exitDx=0;exitDy=0;entryX=0.5;entryY=0;entryDx=0;entryDy=0;" edge="1" parent="1" source="T5jp5YtRydBO0HDNmbS5-7" target="T5jp5YtRydBO0HDNmbS5-10">
          <mxGeometry relative="1" as="geometry" />
        </mxCell>
        <mxCell id="T5jp5YtRydBO0HDNmbS5-13" value="&lt;font style=&quot;font-size: 24px;&quot;&gt;Datenhaltungsschicht&lt;/font&gt;" style="swimlane;whiteSpace=wrap;html=1;" vertex="1" parent="1">
          <mxGeometry x="480" y="937.5" width="280" height="321" as="geometry" />
        </mxCell>
        <mxCell id="T5jp5YtRydBO0HDNmbS5-14" value="Datenstruktur,&lt;div&gt;= NoSQL (JSON)&lt;br&gt;&lt;div&gt;&lt;br&gt;&lt;/div&gt;&lt;div&gt;Google Firebase&lt;/div&gt;&lt;div&gt;Realtime Database&lt;/div&gt;&lt;/div&gt;" style="text;html=1;align=center;verticalAlign=middle;resizable=0;points=[];autosize=1;strokeColor=none;fillColor=none;fontSize=24;" vertex="1" parent="T5jp5YtRydBO0HDNmbS5-13">
          <mxGeometry x="25" y="80.5" width="230" height="160" as="geometry" />
        </mxCell>
        <mxCell id="T5jp5YtRydBO0HDNmbS5-21" style="edgeStyle=orthogonalEdgeStyle;rounded=0;orthogonalLoop=1;jettySize=auto;html=1;entryX=0.888;entryY=0.421;entryDx=0;entryDy=0;entryPerimeter=0;" edge="1" parent="1" source="T5jp5YtRydBO0HDNmbS5-13" target="T5jp5YtRydBO0HDNmbS5-1">
          <mxGeometry relative="1" as="geometry" />
        </mxCell>
        <mxCell id="T5jp5YtRydBO0HDNmbS5-24" value="" style="endArrow=none;dashed=1;html=1;dashPattern=1 3;strokeWidth=2;rounded=0;" edge="1" parent="1">
          <mxGeometry width="50" height="50" relative="1" as="geometry">
            <mxPoint x="40" y="760" as="sourcePoint" />
            <mxPoint x="800" y="760" as="targetPoint" />
          </mxGeometry>
        </mxCell>
        <mxCell id="T5jp5YtRydBO0HDNmbS5-27" style="edgeStyle=orthogonalEdgeStyle;rounded=0;orthogonalLoop=1;jettySize=auto;html=1;" edge="1" parent="1" target="T5jp5YtRydBO0HDNmbS5-17">
          <mxGeometry relative="1" as="geometry">
            <mxPoint x="795" y="777" as="targetPoint" />
            <mxPoint x="620" y="842" as="sourcePoint" />
          </mxGeometry>
        </mxCell>
      </root>
    </mxGraphModel>
  </diagram>
</mxfile>
